<svg width="26" height="28" viewBox="0 0 26 28" fill="none" xmlns="http://www.w3.org/2000/svg">
<path fill-rule="evenodd" clip-rule="evenodd" d="M17.1195 3.31618L3.38927 20.4881C3.13989 20.8001 3.04802 21.2026 3.13989 21.5891L4.13302 25.7964L8.56489 25.741C8.98635 25.7366 9.37572 25.5485 9.63385 25.2276C14.3253 19.3578 23.2693 8.1666 23.523 7.83847C23.7622 7.45056 23.8555 6.90222 23.7301 6.37431C23.6018 5.83326 23.2649 5.37389 22.7793 5.08076C22.6757 5.00931 20.2184 3.10181 20.1426 3.04201C19.218 2.30118 17.8691 2.42951 17.1195 3.31618ZM3.26968 27.9956C2.76364 27.9956 2.32323 27.6485 2.2051 27.1541L1.01073 22.0922C0.764267 21.0437 1.00927 19.9616 1.68156 19.1216L15.4191 1.93951C15.4249 1.93368 15.4293 1.92639 15.4351 1.92056C16.9416 0.119515 19.6657 -0.145902 21.5032 1.32847C21.5761 1.38535 24.0159 3.28118 24.0159 3.28118C24.9026 3.8091 25.5953 4.75264 25.8578 5.86972C26.1189 6.97514 25.9293 8.11556 25.3211 9.07952C25.2759 9.15097 25.2366 9.21222 11.3416 26.5956C10.6722 27.4297 9.66885 27.9153 8.59114 27.9285L3.28427 27.9956H3.26968Z" fill="#201DB1"/>
</svg>
